<svg xmlns="http://www.w3.org/2000/svg" viewBox="0 0 512 512" fill="none">
  <!-- Background rounded square -->
  <rect width="512" height="512" rx="96" fill="#2563eb"/>
  
  <!-- Decorative subtle grid pattern -->
  <rect x="48" y="48" width="416" height="416" rx="64" fill="#1d4ed8" opacity="0.5"/>
  
  <!-- Stylized "C" letter -->
  <path d="M310 140C284 126 256 120 228 124C200 128 176 142 158 162C140 182 130 208 128 234C126 260 132 288 146 312C160 336 180 354 204 364C228 374 254 376 280 370C306 364 328 350 344 330" 
        stroke="white" stroke-width="48" stroke-linecap="round" fill="none"/>
  
  <!-- Gear teeth around the C -->
  <circle cx="340" cy="200" r="8" fill="#60a5fa"/>
  <circle cx="360" cy="240" r="6" fill="#93c5fd"/>
  <circle cx="364" cy="284" r="8" fill="#60a5fa"/>
  <circle cx="352" cy="326" r="6" fill="#93c5fd"/>
  
  <!-- Wrench accent -->
  <path d="M370 150L400 120C406 114 416 114 422 120L428 126C434 132 434 142 428 148L398 178" 
        stroke="#60a5fa" stroke-width="16" stroke-linecap="round" fill="none"/>
  
  <!-- Small utility dots -->
  <circle cx="160" cy="380" r="10" fill="#60a5fa" opacity="0.8"/>
  <circle cx="200" cy="400" r="7" fill="#93c5fd" opacity="0.6"/>
  <circle cx="140" cy="350" r="6" fill="#93c5fd" opacity="0.6"/>
  
  <!-- Code bracket accent -->
  <path d="M100 220L80 256L100 292" stroke="#60a5fa" stroke-width="12" stroke-linecap="round" stroke-linejoin="round" fill="none" opacity="0.5"/>
</svg>
